HIERARCHY
ROOT Hips
{
  OFFSET 0.849866 78.6569 -0.536788
  CHANNELS 6 Xposition Yposition Zposition Zrotation Xrotation Yrotation
  JOINT Bip01_Pelvis
  {
    OFFSET 0 0 0
    CHANNELS 6 Xposition Yposition Zposition Zrotation Xrotation Yrotation
    JOINT BN_Tail_01
    {
      OFFSET -5.52397 -0.332285 0
      CHANNELS 6 Xposition Yposition Zposition Zrotation Xrotation Yrotation
      JOINT BN_Tail_02
      {
        OFFSET 6.48885 -2.032e-005 0
        CHANNELS 6 Xposition Yposition Zposition Zrotation Xrotation Yrotation
        JOINT BN_Tail_03
        {
          OFFSET 7.08759 1.016e-005 -0.00261112
          CHANNELS 6 Xposition Yposition Zposition Zrotation Xrotation Yrotation
          End Site
          {
            OFFSET 0 0 0
          }
        }
      }
    }
    JOINT Bip01_Spine
    {
      OFFSET 4.02227 0.398968 0
      CHANNELS 6 Xposition Yposition Zposition Zrotation Xrotation Yrotation
      JOINT BN_UpperArm_R_01
      {
        OFFSET 4.84413 -3.22857 -3.65581
        CHANNELS 6 Xposition Yposition Zposition Zrotation Xrotation Yrotation
        JOINT BN_Forearm_R_01
        {
          OFFSET 8.51614 0 0
          CHANNELS 6 Xposition Yposition Zposition Zrotation Xrotation Yrotation
          JOINT BN_hand_R_01
          {
            OFFSET 10.1924 0 0
            CHANNELS 6 Xposition Yposition Zposition Zrotation Xrotation Yrotation
            JOINT BN_Finger_R_02
            {
              OFFSET 14.5949 -1.43855 0.585079
              CHANNELS 6 Xposition Yposition Zposition Zrotation Xrotation Yrotation
              End Site
              {
                OFFSET 0 0 0
              }
            }
            JOINT BN_Finger_R_01
            {
              OFFSET 14.4623 0 0
              CHANNELS 6 Xposition Yposition Zposition Zrotation Xrotation Yrotation
              End Site
              {
                OFFSET 0 0 0
              }
            }
          }
        }
      }
      JOINT BN_UpperArm_L_01
      {
        OFFSET 4.84412 -3.22858 3.65557
        CHANNELS 6 Xposition Yposition Zposition Zrotation Xrotation Yrotation
        JOINT BN_Forearm_L_01
        {
          OFFSET 8.51611 0 0
          CHANNELS 6 Xposition Yposition Zposition Zrotation Xrotation Yrotation
          JOINT BN_hand_L_01
          {
            OFFSET 10.1924 0 0
            CHANNELS 6 Xposition Yposition Zposition Zrotation Xrotation Yrotation
            JOINT BN_Finger_L_01
            {
              OFFSET 14.4623 0 0
              CHANNELS 6 Xposition Yposition Zposition Zrotation Xrotation Yrotation
              End Site
              {
                OFFSET 0 0 0
              }
            }
            JOINT BN_Finger_L_02
            {
              OFFSET 14.5949 1.43855 0.585071
              CHANNELS 6 Xposition Yposition Zposition Zrotation Xrotation Yrotation
              End Site
              {
                OFFSET 0 0 0
              }
            }
          }
        }
      }
      JOINT Bip01_R_Thigh
      {
        OFFSET -4.03411 -0.254132 -3.45377
        CHANNELS 6 Xposition Yposition Zposition Zrotation Xrotation Yrotation
        JOINT Bip01_R_Calf
        {
          OFFSET 3.92618 0 0
          CHANNELS 6 Xposition Yposition Zposition Zrotation Xrotation Yrotation
          JOINT Bip01_R_HorseLink
          {
            OFFSET 6.12319 0 0
            CHANNELS 6 Xposition Yposition Zposition Zrotation Xrotation Yrotation
            JOINT Bip01_R_Foot
            {
              OFFSET 9.94776 0 0
              CHANNELS 6 Xposition Yposition Zposition Zrotation Xrotation Yrotation
              JOINT Bip01_R_Toe3
              {
                OFFSET 0.881252 -0.110953 0.0158496
                CHANNELS 6 Xposition Yposition Zposition Zrotation Xrotation Yrotation
                JOINT Bip01_R_Toe31
                {
                  OFFSET 2.32137 0 0
                  CHANNELS 6 Xposition Yposition Zposition Zrotation Xrotation Yrotation
                  JOINT Bip01_R_Toe32
                  {
                    OFFSET 1.63293 0 0
                    CHANNELS 6 Xposition Yposition Zposition Zrotation Xrotation Yrotation
                    JOINT Bip01_R_Toe3Nub
                    {
                      OFFSET 1.72131 0 0
                      CHANNELS 6 Xposition Yposition Zposition Zrotation Xrotation Yrotation
                      End Site
                      {
                        OFFSET 0 0 0
                      }
                    }
                  }
                }
              }
              JOINT Bip01_R_Toe2
              {
                OFFSET 0.994751 0.967285 -1.09428
                CHANNELS 6 Xposition Yposition Zposition Zrotation Xrotation Yrotation
                JOINT Bip01_R_Toe21
                {
                  OFFSET 2.20201 0 0
                  CHANNELS 6 Xposition Yposition Zposition Zrotation Xrotation Yrotation
                  JOINT Bip01_R_Toe22
                  {
                    OFFSET 1.84925 0 0
                    CHANNELS 6 Xposition Yposition Zposition Zrotation Xrotation Yrotation
                    JOINT Bip01_R_Toe2Nub
                    {
                      OFFSET 1.70976 0 0
                      CHANNELS 6 Xposition Yposition Zposition Zrotation Xrotation Yrotation
                      End Site
                      {
                        OFFSET 0 0 0
                      }
                    }
                  }
                }
              }
              JOINT Bip01_R_Toe1
              {
                OFFSET 1.3748 1.34027 -0.0712419
                CHANNELS 6 Xposition Yposition Zposition Zrotation Xrotation Yrotation
                JOINT Bip01_R_Toe11
                {
                  OFFSET 2.26122 0 0
                  CHANNELS 6 Xposition Yposition Zposition Zrotation Xrotation Yrotation
                  JOINT Bip01_R_Toe12
                  {
                    OFFSET 2.22215 0 0
                    CHANNELS 6 Xposition Yposition Zposition Zrotation Xrotation Yrotation
                    JOINT Bip01_R_Toe1Nub
                    {
                      OFFSET 1.61867 0 0
                      CHANNELS 6 Xposition Yposition Zposition Zrotation Xrotation Yrotation
                      End Site
                      {
                        OFFSET 0 0 0
                      }
                    }
                  }
                }
              }
              JOINT Bip01_R_Toe0
              {
                OFFSET 1.40695 0.687986 0.883783
                CHANNELS 6 Xposition Yposition Zposition Zrotation Xrotation Yrotation
                JOINT Bip01_R_Toe01
                {
                  OFFSET 2.26828 0 0
                  CHANNELS 6 Xposition Yposition Zposition Zrotation Xrotation Yrotation
                  JOINT Bip01_R_Toe02
                  {
                    OFFSET 2.09769 0 0
                    CHANNELS 6 Xposition Yposition Zposition Zrotation Xrotation Yrotation
                    JOINT Bip01_R_Toe0Nub
                    {
                      OFFSET 1.53753 0 0
                      CHANNELS 6 Xposition Yposition Zposition Zrotation Xrotation Yrotation
                      End Site
                      {
                        OFFSET 0 0 0
                      }
                    }
                  }
                }
              }
            }
          }
        }
      }
      JOINT Bip01_L_Thigh
      {
        OFFSET -4.03411 -0.254147 3.45377
        CHANNELS 6 Xposition Yposition Zposition Zrotation Xrotation Yrotation
        JOINT Bip01_L_Calf
        {
          OFFSET 3.92616 0 0
          CHANNELS 6 Xposition Yposition Zposition Zrotation Xrotation Yrotation
          JOINT Bip01_L_HorseLink
          {
            OFFSET 6.1232 0 0
            CHANNELS 6 Xposition Yposition Zposition Zrotation Xrotation Yrotation
            JOINT Bip01_L_Foot
            {
              OFFSET 9.94775 0 0
              CHANNELS 6 Xposition Yposition Zposition Zrotation Xrotation Yrotation
              JOINT Bip01_L_Toe3
              {
                OFFSET 0.881246 -0.110986 -0.0157582
                CHANNELS 6 Xposition Yposition Zposition Zrotation Xrotation Yrotation
                JOINT Bip01_L_Toe31
                {
                  OFFSET 2.32136 0 0
                  CHANNELS 6 Xposition Yposition Zposition Zrotation Xrotation Yrotation
                  JOINT Bip01_L_Toe32
                  {
                    OFFSET 1.63293 0 0
                    CHANNELS 6 Xposition Yposition Zposition Zrotation Xrotation Yrotation
                    JOINT Bip01_L_Toe3Nub
                    {
                      OFFSET 1.7213 0 0
                      CHANNELS 6 Xposition Yposition Zposition Zrotation Xrotation Yrotation
                      End Site
                      {
                        OFFSET 0 0 0
                      }
                    }
                  }
                }
              }
              JOINT Bip01_L_Toe2
              {
                OFFSET 0.994649 0.967162 1.09447
                CHANNELS 6 Xposition Yposition Zposition Zrotation Xrotation Yrotation
                JOINT Bip01_L_Toe21
                {
                  OFFSET 2.202 0 0
                  CHANNELS 6 Xposition Yposition Zposition Zrotation Xrotation Yrotation
                  JOINT Bip01_L_Toe22
                  {
                    OFFSET 1.84926 0 0
                    CHANNELS 6 Xposition Yposition Zposition Zrotation Xrotation Yrotation
                    JOINT Bip01_L_Toe2Nub
                    {
                      OFFSET 1.70976 0 0
                      CHANNELS 6 Xposition Yposition Zposition Zrotation Xrotation Yrotation
                      End Site
                      {
                        OFFSET 0 0 0
                      }
                    }
                  }
                }
              }
              JOINT Bip01_L_Toe1
              {
                OFFSET 1.37483 1.34021 0.0715086
                CHANNELS 6 Xposition Yposition Zposition Zrotation Xrotation Yrotation
                JOINT Bip01_L_Toe11
                {
                  OFFSET 2.26124 0 0
                  CHANNELS 6 Xposition Yposition Zposition Zrotation Xrotation Yrotation
                  JOINT Bip01_L_Toe12
                  {
                    OFFSET 2.22214 0 0
                    CHANNELS 6 Xposition Yposition Zposition Zrotation Xrotation Yrotation
                    JOINT Bip01_L_Toe1Nub
                    {
                      OFFSET 1.61867 0 0
                      CHANNELS 6 Xposition Yposition Zposition Zrotation Xrotation Yrotation
                      End Site
                      {
                        OFFSET 0 0 0
                      }
                    }
                  }
                }
              }
              JOINT Bip01_L_Toe0
              {
                OFFSET 1.40707 0.688009 -0.883564
                CHANNELS 6 Xposition Yposition Zposition Zrotation Xrotation Yrotation
                JOINT Bip01_L_Toe01
                {
                  OFFSET 2.26828 0 0
                  CHANNELS 6 Xposition Yposition Zposition Zrotation Xrotation Yrotation
                  JOINT Bip01_L_Toe02
                  {
                    OFFSET 2.0977 0 0
                    CHANNELS 6 Xposition Yposition Zposition Zrotation Xrotation Yrotation
                    JOINT Bip01_L_Toe0Nub
                    {
                      OFFSET 1.53752 0 0
                      CHANNELS 6 Xposition Yposition Zposition Zrotation Xrotation Yrotation
                      End Site
                      {
                        OFFSET 0 0 0
                      }
                    }
                  }
                }
              }
            }
          }
        }
      }
      JOINT Bip01_Spine1
      {
        OFFSET 4.90674 -0.00437896 0
        CHANNELS 6 Xposition Yposition Zposition Zrotation Xrotation Yrotation
        JOINT Bip01_Neck
        {
          OFFSET 5.56447 -1.28357 0
          CHANNELS 6 Xposition Yposition Zposition Zrotation Xrotation Yrotation
          JOINT Bip01_Neck1
          {
            OFFSET 2.79308 -0.00219964 0
            CHANNELS 6 Xposition Yposition Zposition Zrotation Xrotation Yrotation
            JOINT Bip01_Head
            {
              OFFSET 2.79272 0 0
              CHANNELS 6 Xposition Yposition Zposition Zrotation Xrotation Yrotation
              JOINT BN_Mouth_01
              {
                OFFSET 4.19089 0.0665938 0
                CHANNELS 6 Xposition Yposition Zposition Zrotation Xrotation Yrotation
                End Site
                {
                  OFFSET 0 0 0
                }
              }
              JOINT Bip01_HeadNub
              {
                OFFSET 6.95118 0 0
                CHANNELS 6 Xposition Yposition Zposition Zrotation Xrotation Yrotation
                End Site
                {
                  OFFSET 0 0 0
                }
              }
            }
          }
        }
      }
    }
  }
}
MOTION
Frames:	3
Frame Time:	0.0333333
0.849866 91.44 0 27.1255 -89.9999 112.373 0 7.27596e-012 0 -89.9999 6.18277 -90 -5.52397 -0.332268 5.42101e-020 -35.3922 -0.0109711 -179.967 6.48885 -1.42109e-014 3.72529e-009 13.1462 5.82347e-006 -1.9125e-005 7.08757 -7.6294e-006 -1.86265e-009 21.1012 -1.34542e-005 1.31936e-005 4.02121 0.398911 -4.064e-005 -4.85285 0.59934 3.40587 4.84413 -3.22856 -3.65582 -81.6781 -8.74388 35.7477 8.51611 0.000261307 0 36.3255 7.35384e-006 -20.2382 10.1924 -3.8147e-006 3.8147e-006 -30.9124 0.673599 -22.3453 14.5949 -1.43856 0.585073 -48.2998 -1.49203 21.2401 14.4623 -5.72206e-006 -7.62939e-006 -2.99768 1.2971e-005 19.8665 4.84414 -3.22858 3.65555 98.3219 -8.74397 -144.253 8.5161 -0.000267029 -7.62939e-006 -36.3256 -6.59428e-006 -20.2382 10.1924 7.10544e-015 5.72204e-006 30.9124 -0.673606 -22.3453 14.4623 -1.52588e-005 1.90735e-006 2.99765 3.67991e-006 19.8666 14.5949 1.43854 0.585079 48.2998 1.49202 21.2401 -3.76132 -0.773751 -3.67577 -91.1822 -2.57642 173.566 3.92618 -1.90735e-006 -9.53675e-007 -75.4789 -6.71549e-006 -1.61661e-005 6.1232 0 1.77636e-015 99.2217 1.70173e-006 -9.86853e-006 9.94775 0 0 -51.9036 4.71083 6.05352 0.881249 -0.110963 0.0158141 153.242 -4.52546 179.851 2.32137 3.81473e-006 0 81.3832 9.81784e-006 -2.48535e-006 1.63293 1.42111e-014 -2.38419e-006 -87.5442 -6.74311e-006 9.82064e-006 1.7213 3.81479e-006 -4.76837e-007 -1.98027e-006 9.89615e-006 3.64451e-007 0.994697 0.967275 -1.09432 109.973 14.8782 36.1765 2.202 -7.6295e-006 9.53673e-007 55.6001 8.40152e-006 7.63127e-006 1.84923 0 -4.76837e-007 -35.3054 -1.97003e-005 -7.61126e-006 1.70975 -7.62956e-006 -4.76837e-007 -3.57277e-008 1.29999e-006 1.39069e-007 1.37481 1.34026 -0.0713031 122.954 -1.46622 -2.26038 2.26123 -7.62949e-006 2.38419e-007 31.1837 -1.25798e-005 1.42897e-005 2.22212 3.81475e-006 -2.86102e-006 -38.5093 -1.04679e-005 3.32942e-006 1.61867 -1.42111e-014 0 2.62663e-007 9.78704e-006 -1.76685e-005 1.40697 0.687979 0.883719 106.744 -17.2201 -40.8972 2.26828 7.6295e-006 1.77635e-015 26.1304 -1.45817e-005 2.1248e-005 2.09769 7.62951e-006 2.86102e-006 -61.0258 1.63969e-005 6.56418e-008 1.53753 7.62957e-006 9.53673e-007 -6.27251e-007 1.00148e-005 -2.96574e-006 -4.17168 -0.70147 3.21918 -97.4545 7.91288 -174.151 3.92618 7.10544e-015 0 -76.5776 -1.40675e-005 -1.46095e-005 6.12318 0 -2.86102e-006 132.922 1.55659e-005 9.66453e-006 9.94775 -7.62943e-006 0 -17.9073 -7.51454 3.63991 0.881235 -0.110963 -0.0158143 109.143 3.14949 -176.745 2.32136 -4.76842e-007 7.15256e-007 44.4439 -5.25012e-006 -1.8794e-005 1.63293 -3.81475e-006 -2.38419e-007 -43.5294 -4.22521e-006 3.68294e-006 1.72131 4.76846e-007 4.76837e-007 -179.96 -1.74411e-006 -1.50611e-007 0.994705 0.967275 1.09432 84.9642 4.52313 -38.5029 2.20201 -3.81474e-006 -3.81469e-006 63.0468 8.51697e-006 9.10438e-007 1.84925 -3.81475e-006 3.81469e-006 -35.3054 -2.10299e-006 -1.24308e-006 1.70977 -1.90738e-006 7.62939e-006 179.96 -6.54151e-006 -1.11855e-005 1.3748 1.34026 0.0713022 88.4895 -0.0710612 2.69314 2.26122 -7.62947e-006 -4.76837e-007 49.2929 8.69593e-006 5.25444e-006 2.22213 0 -4.76837e-007 -38.5093 2.05219e-006 1.46955e-005 1.61868 5.72215e-006 -2.38419e-007 179.96 -1.00559e-005 1.78855e-005 1.40698 0.687962 -0.883722 90.4319 2.44904 43.7253 2.26829 1.90737e-006 7.62938e-006 49.9367 1.25775e-005 1.65323e-006 2.0977 -3.81475e-006 3.81469e-006 -61.0258 -3.40046e-006 8.34509e-006 1.53752 -7.10559e-015 -1.14441e-005 179.96 -1.05247e-005 1.64358e-005 4.90711 -0.00430298 -0.000375748 9.04827 4.95586 -2.08594 5.56426 -1.28359 0.000252724 -1.92335 -6.5776 8.33944 2.79365 -0.00200653 0.00014925 24.6195 -3.86835 -9.68595 2.79272 -7.6294e-006 0 28.0907 -1.35008 0.454549 4.19086 0.0666123 2.02656e-005 -126.987 -0.039917 -179.98 6.95117 1.52588e-005 0 4.44822e-007 1.00055e-005 1.49041e-007 
0.849866 90.6106 -2.14006e-008 11.4967 -89.9999 95.6204 0 7.27596e-012 0 -89.9998 4.70416 -90 -5.52397 -0.332268 -1.16335e-016 -32.4119 -0.00561524 -179.972 6.48885 -1.42109e-014 3.72529e-009 12.5598 6.01877e-006 -1.90644e-005 7.08757 -7.6294e-006 -1.86265e-009 21.6326 -1.25488e-005 1.52907e-005 4.03022 0.295005 -4.06407e-005 -5.23639 0.66223 3.41758 4.84413 -3.22856 -3.65582 -81.1925 -7.84159 35.4966 8.51611 0.000261307 -1.20792e-013 40.8148 -5.50911 -20.7238 10.1924 -3.8147e-006 3.8147e-006 -27.0031 0.881499 -22.6502 14.5949 -1.43856 0.585073 -47.213 -2.36404 5.43986 14.4623 -5.72206e-006 -7.62939e-006 -2.9575 0.498364 7.42227 4.71868 -3.19291 3.82708 98.8653 -8.73403 -144.078 8.5161 -0.000267029 -7.62939e-006 -40.8148 5.50911 -20.7238 10.1924 4.26326e-014 5.72204e-006 27.3679 -0.881501 -22.6501 14.5089 0.505175 0.205465 -0.269627 7.46351 8.20457 14.5484 0.933365 0.379613 49.0261 -3.47523 10.4347 -3.7755 -0.701609 -3.67577 -90.4912 -2.77675 173.641 3.92618 -1.90735e-006 -9.53675e-007 -75.3238 -1.09894e-005 -1.50419e-005 6.1232 -1.42109e-014 1.77636e-015 102.739 2.52837e-006 -1.028e-005 9.94775 3.55273e-014 3.55271e-015 -55.7055 4.50038 6.21572 0.881249 -0.110963 0.0158141 153.904 -4.52696 179.903 2.32137 3.81473e-006 0 81.3832 9.78315e-006 -2.49641e-006 1.63293 -4.26333e-014 -2.38419e-006 -87.5442 -6.73967e-006 9.85697e-006 1.7213 3.81479e-006 -4.76837e-007 -1.98027e-006 9.89615e-006 3.64451e-007 0.994697 0.967275 -1.09432 109.456 14.4454 36.1582 2.202 -7.6295e-006 9.53673e-007 54.3199 8.12726e-006 7.84239e-006 1.84923 3.55278e-015 -4.76837e-007 -35.3055 -1.96659e-005 -7.57121e-006 1.70975 -7.62957e-006 -4.76837e-007 -3.57277e-008 1.29999e-006 1.39069e-007 1.37481 1.34026 -0.0713031 122.294 -1.42869 -2.24516 2.26123 -7.62949e-006 2.38419e-007 30.1116 -1.32838e-005 1.30707e-005 2.22212 3.81475e-006 -2.86102e-006 -38.5093 -1.06273e-005 3.24787e-006 1.61867 0 3.10863e-015 2.62663e-007 9.78704e-006 -1.76685e-005 1.40697 0.687979 0.883719 106.267 -16.7419 -40.8647 2.26828 7.6295e-006 -8.88177e-015 25.2363 -1.67014e-005 1.64536e-005 2.09769 7.62951e-006 2.86102e-006 -61.0258 1.6013e-005 -3.3446e-007 1.53753 7.62957e-006 9.53673e-007 -6.27251e-007 1.00148e-005 -2.96574e-006 -4.18441 -0.621471 3.21918 -100.593 7.72298 -173.727 3.92618 1.42109e-014 0 -80.4591 -1.30647e-005 -1.55329e-005 6.12318 0 -2.86102e-006 135.116 1.37318e-005 1.12651e-005 9.94775 -7.62943e-006 1.77636e-015 -22.4416 -7.81669 2.94817 0.881235 -0.110963 -0.0158143 109.6 3.17519 -176.77 2.32136 -4.76842e-007 7.15256e-007 44.4439 -5.46079e-006 -1.87864e-005 1.63293 -3.81475e-006 -2.38419e-007 -43.5294 -4.06912e-006 3.82271e-006 1.72131 4.76846e-007 4.76837e-007 -179.96 -1.74402e-006 -1.50617e-007 0.994704 0.967275 1.09432 84.6052 4.80759 -38.4736 2.20201 -3.81474e-006 -3.81469e-006 63.0468 -1.54086e-005 -1.16617e-005 1.84925 -3.81476e-006 3.81469e-006 -35.3054 -2.31188e-006 -1.35281e-006 1.70977 -1.90738e-006 7.62939e-006 179.96 -6.54099e-006 -1.11854e-005 1.3748 1.34026 0.0713022 88.0329 -0.0925609 2.69248 2.26122 -7.62947e-006 -4.76837e-007 49.2929 8.78043e-006 5.23002e-006 2.22213 0 -4.76837e-007 -38.5093 1.93238e-006 1.4656e-005 1.61868 5.72215e-006 -2.38419e-007 179.96 -1.0056e-005 1.78854e-005 1.40698 0.687962 -0.883722 90.1013 2.13304 43.7384 2.26829 1.90737e-006 7.62938e-006 49.9367 1.23998e-005 1.53887e-006 2.0977 -3.81475e-006 3.81469e-006 -61.0258 -3.21477e-006 8.6922e-006 1.53752 -4.26335e-014 -1.14441e-005 179.96 -1.05264e-005 1.6436e-005 4.90711 -0.00430298 -0.000375748 6.87126 4.96245 -2.07152 5.56426 -1.28359 0.000252724 -3.22164 -6.4055 8.20767 2.79365 -0.00200653 0.00014925 22.6908 -3.77524 -9.40572 2.79272 -7.6294e-006 -4.44089e-016 30.1006 -1.28652 0.147439 4.19086 0.0666123 2.02656e-005 -127.692 -0.0320587 -179.984 6.95117 1.52588e-005 -1.33227e-015 4.44822e-007 1.00055e-005 1.49041e-007 
0.849866 89.6643 -4.58183e-008 23.8801 -89.9999 106.705 0 7.27596e-012 0 -89.9997 2.97066 -90 -5.52397 -0.332268 -5.46438e-017 -29.0908 -0.00683594 -179.966 6.48885 1.42109e-014 3.72529e-009 11.9796 6.21162e-006 -1.90025e-005 7.08757 -7.6294e-006 -1.86265e-009 22.0357 -1.5408e-005 8.04776e-006 4.0374 0.172947 -4.06418e-005 -5.73645 0.731953 3.43312 4.84413 -3.22856 -3.65582 -80.0109 -5.99354 35.9374 8.51611 0.000261307 -3.90798e-013 44.1789 -9.82898 -20.8286 10.1924 -3.81471e-006 3.8147e-006 -23.5747 1.12141 -23.0699 14.5949 -1.43856 0.585073 -46.647 -2.65244 -7.8843 14.4623 -5.72206e-006 -7.62939e-006 -2.7549 0.969066 -3.25463 4.5905 -3.15429 4.00246 100.134 -8.82947 -142.683 8.5161 -0.000267029 -7.62939e-006 -44.1789 9.82898 -20.8286 10.1924 2.13163e-014 5.72204e-006 24.0594 -1.12141 -23.0699 14.5512 0.964478 0.392264 -0.424823 13.5903 -2.06472 14.506 0.474065 0.192802 48.0508 -7.99042 1.16001 -3.78986 -0.619989 -3.67577 -89.7689 -2.99312 173.729 3.92618 -1.90735e-006 -9.53675e-007 -75.2081 -1.39494e-005 -1.42483e-005 6.1232 0 -3.55271e-015 106.746 6.69031e-006 -1.19032e-005 9.94775 1.42109e-014 1.77636e-015 -59.7794 4.28473 6.37172 0.881249 -0.110963 0.0158141 155.722 -4.52775 -179.954 2.32137 3.81473e-006 -8.88179e-016 81.3832 9.67877e-006 -2.44536e-006 1.63293 1.42111e-014 -2.38419e-006 -87.5442 -6.69055e-006 9.95353e-006 1.7213 3.81479e-006 -4.76837e-007 -1.98027e-006 9.89615e-006 3.64451e-007 0.994697 0.967276 -1.09432 108.043 13.2594 36.0884 2.202 -7.6295e-006 9.53674e-007 50.8081 3.5248e-006 5.35997e-006 1.84923 3.55278e-015 -4.76837e-007 -35.3055 -1.94798e-005 -7.35481e-006 1.70975 -7.62956e-006 -4.76837e-007 -3.57277e-008 1.29999e-006 1.39069e-007 1.37481 1.34026 -0.0713031 120.485 -1.32658 -2.20129 2.26123 -7.6295e-006 2.38419e-007 27.1708 -1.5284e-005 9.10871e-006 2.22212 3.81475e-006 -2.86102e-006 -38.5093 -1.10615e-005 3.07798e-006 1.61867 0 4.44089e-015 2.62663e-007 9.78704e-006 -1.76685e-005 1.40697 0.687979 0.883719 104.96 -15.4313 -40.7559 2.26828 7.6295e-006 -5.32906e-015 22.7837 -2.49275e-005 -4.83244e-006 2.09769 7.62951e-006 2.86102e-006 -61.0258 1.52256e-005 -1.27579e-006 1.53753 7.62957e-006 9.53673e-007 -6.27251e-007 1.00148e-005 -2.96574e-006 -4.19693 -0.531064 3.21918 -104.089 7.49552 -173.277 3.92618 -1.42109e-014 1.77636e-015 -84.6943 -1.19063e-005 -1.6459e-005 6.12318 -2.84218e-014 -2.86102e-006 137.831 1.64769e-005 8.13741e-006 9.94776 -7.62943e-006 1.77636e-015 -27.1303 -8.04355 2.25864 0.881235 -0.110963 -0.0158143 110.805 3.24253 -176.838 2.32136 -4.76842e-007 7.15256e-007 44.4439 -5.67697e-006 -1.88003e-005 1.63293 -3.81475e-006 -2.38419e-007 -43.5294 -3.92578e-006 3.98138e-006 1.72131 4.76846e-007 4.76837e-007 -179.96 -1.74385e-006 -1.50601e-007 0.994704 0.967275 1.09432 83.6579 5.55622 -38.3881 2.20201 -3.81474e-006 -3.81469e-006 63.0468 -1.50103e-005 -1.18322e-005 1.84925 -3.81476e-006 3.81469e-006 -35.3054 -2.36766e-006 -1.64325e-006 1.70977 -1.90738e-006 7.62939e-006 179.96 -6.54049e-006 -1.11853e-005 1.3748 1.34026 0.0713022 86.8299 -0.149087 2.68995 2.26122 -7.62947e-006 -4.76837e-007 49.2929 8.83064e-006 5.21456e-006 2.22213 -3.55277e-015 -4.76837e-007 -38.5093 1.83182e-006 1.4633e-005 1.61868 5.72215e-006 -2.38419e-007 179.96 -1.00561e-005 1.78854e-005 1.40698 0.687962 -0.883722 89.2309 1.30018 43.7646 2.26829 1.90737e-006 7.62938e-006 49.9367 1.22431e-005 1.44597e-006 2.0977 -3.81475e-006 3.81469e-006 -61.0258 -3.18355e-006 9.14389e-006 1.53752 -1.42112e-014 -1.14441e-005 179.96 -1.05285e-005 1.64362e-005 4.90711 -0.00430298 -0.000375748 4.37641 4.97443 -2.04316 5.56426 -1.28359 0.000252724 -4.63029 -6.23721 8.08333 2.79365 -0.00200653 0.00014925 20.7331 -3.69558 -9.13207 2.79272 -7.6294e-006 -8.88178e-016 32.3265 -1.25253 -0.189433 4.19086 0.0666123 2.02655e-005 -129.596 -0.0604248 -179.972 6.95117 1.52588e-005 -6.66134e-015 4.44822e-007 1.00055e-005 1.49041e-007 
